<svg data-v-70b83f88="" version="1.0" xmlns="http://www.w3.org/2000/svg" xmlns:xlink="http://www.w3.org/1999/xlink" width="100%" height="100%" viewBox="0 0 340.000000 250.000000" preserveAspectRatio="xMidYMid meet" color-interpolation-filters="sRGB" style="margin: auto;"> <rect data-v-70b83f88="" x="0" y="0" width="100%" height="100%" fill="#ffffff" fill-opacity="1" class="background"></rect> <rect data-v-70b83f88="" x="0" y="0" width="100%" height="100%" fill="url(#watermark)" fill-opacity="1" class="watermarklayer"></rect> <g data-v-70b83f88="" fill="#fcc29a" class="newinitialsvg-g newinitialsvg" transform="translate(93.01955127716064,68.26890563964844)"><g class="tp-name" transform="translate(0,0)"><g class="tp-graph" transform="translate(0, 0)" fill="#fcc29a"><g data-gra="path-name" filter="url(#3e9ede7f-7b0a-4be0-81aa-14c6b4c18296)"><g transform="scale(1)"><path d="M54.09-7.28L54.09-7.28L50.04-8.98Q47.53-12.76 46.76-16.94Q46-21.11 46-25.79L46-25.79Q44.47-51.48 46-56.51L46-56.51L47.71-59.84L48.88-59.84Q48.88-62.17 49.19-64.19Q49.50-66.21 50.67-67.92L50.67-67.92Q54.09-69.54 56.96-69.09L56.96-69.09Q59.30-67.92 59.88-65.90Q60.46-63.88 59.93-61.63L59.93-61.63Q63.97-61.63 68.01-61.32Q72.05-61.00 74.39-57.68L74.39-57.68Q76.10-53.64 76.05-49.05Q76.01-44.47 75.56-42.50L75.56-42.50Q72.05-37.82 67.11-37.55Q62.17-37.29 56.96-37.29L56.96-37.29L56.96-32.70Q62.17-32.07 67.97-32.66Q73.76-33.24 78.61-29.56L78.61-29.56Q79.96-27.40 79.87-22.10Q79.78-16.80 78.97-11.32L78.97-11.32Q74.39-6.65 67.43-6.96Q60.46-7.28 54.09-7.28ZM57.59-18.24L68.01-18.24L68.01-23.45L57.59-23.45L57.59-18.24ZM56.96-46.45L64.51-46.45L64.51-51.30L56.96-51.30L56.96-46.45ZM50.31 1.26L46.72 3.41Q39.17 1.53 35.85-0.04Q32.52-1.62 25.79-5.03L25.79-5.03Q23.81-4.67 22.78-3.14Q21.74-1.62 17.34-1.62L17.34-1.62L15.99-6.47L19.77-10.33L25.61-14.38L25.96-15.99Q24.35-17.70 24.35-20.44Q24.35-23.18 24.35-26.23L24.35-26.23L24.71-27.76L15.09-28.84Q12.13-30.37 14.20-32.97L14.20-32.97Q19.23-36.30 24.35-37.06Q29.47-37.82 37.02-34.23L37.02-34.23Q39.17-33.06 38.45-29.20L38.45-29.20L32.79-23.99L32.79-21.02Q33.24-18.96 35.08-17.12Q36.93-15.27 36.12-12.31L36.12-12.31L34.95-11.59Q39.44-7.64 41.82-6.42Q44.20-5.21 49.59-2.43L49.59-2.43L50.31 1.26ZM28.03-51.84L28.03-51.84L29.38-48.79Q28.30-41.33 24.89-43.30L24.89-43.30Q19.59-45.19 18.42-48.07L18.42-48.07Q20.75-54.09 23.09-53.37Q25.43-52.65 28.03-51.84Z" transform="translate(-13.346609933035715, 76.99609375)"></path></g></g></g><g transform="translate(70.53009905133928, 0)"><g data-gra="path-name"><g transform="scale(1)"><path d="M58.85 8.71L55.25 10.87Q47.71 8.98 44.38 7.41Q41.06 5.84 34.32 2.43L34.32 2.43Q32.34 2.79 31.31 4.31Q30.28 5.84 25.88 5.84L25.88 5.84L24.53 0.99L28.30-2.88L34.14-6.92L34.50-8.54Q32.88-10.24 32.88-12.98Q32.88-15.72 32.88-18.78L32.88-18.78L33.24-20.30L28.30-21.38Q25.34-22.91 27.40-25.52L27.40-25.52Q30.28-28.84 34.14-29.60Q38.00-30.37 45.55-26.77L45.55-26.77Q47.71-25.61 46.99-21.74L46.99-21.74L41.33-16.53L41.33-13.57Q41.78-11.50 43.62-9.66Q45.46-7.82 44.65-4.85L44.65-4.85L43.48-4.13Q47.98-0.18 50.36 1.03Q52.74 2.25 58.13 5.03L58.13 5.03L58.85 8.71ZM36.57-44.38L36.57-44.38L37.91-41.33Q36.84-33.87 33.42-35.85L33.42-35.85Q28.12-37.73 26.95-40.61L26.95-40.61Q29.29-46.63 31.63-45.91Q33.96-45.19 36.57-44.38ZM39.44-57.32L39.44-57.32L40.79-54.27Q39.71-46.81 36.30-48.79L36.30-48.79Q31.00-50.67 29.83-53.55L29.83-53.55Q32.16-59.57 34.50-58.85Q36.84-58.13 39.44-57.32ZM9.97-0.18L9.97-0.18L7.01-4.76Q5.75-9.97 4.94-15.18Q4.13-20.39 4.13-26.23L4.13-26.23L5.39-30.28L9.97-31.45Q11.23-30.28 11.86-28.84Q12.49-27.40 12.13-25.07L12.13-25.07L15.45-25.07Q15.09-30.10 13.75-34.86L13.75-34.86Q13.84-37.02 15.09-40.07L15.09-40.07Q12.49-40.07 9.75-40.07Q7.01-40.07 4.94-41.87L4.94-41.87L4.13-48.16L4.94-49.95Q7.91-51.66 11.68-51.39Q15.45-51.12 18.87-51.12L18.87-51.12Q20.48-50.49 21.97-49.91Q23.45-49.32 24.26-47.08L24.26-47.08Q25.61-42.32 24.71-37.20L24.71-37.20L22.64-32.61Q24.71-30.28 24.89-26.77Q25.07-23.27 24.03-19.81Q23-16.35 20.08-15.18Q17.16-14.02 13.75-14.02L13.75-14.02L13.75-12.94Q14.55-10.60 15.23-8.27Q15.90-5.93 15.45-3.05L15.45-3.05Q14.55-0.72 13.12-0.13Q11.68 0.45 9.97-0.18ZM78.79-2.34L78.79-2.34Q75.83-3.05 76.19-9.25L76.19-9.25Q78.25-13.48 78.03-19.72Q77.80-25.96 77.80-30.73L77.80-30.73Q66.04-31.71 61.00-30.73L61.00-30.73Q58.94-30.91 59.03-26.50L59.03-26.50L67.65-26.50L72.23-26.68Q74.66-25.79 73.22-22.46L73.22-22.46L70.17-21.29L59.03-20.75L59.03-18.69L73.22-18.15Q75.11-17.16 73.67-14.46L73.67-14.46Q70.71-12.40 66.62-12.94Q62.53-13.48 59.03-12.40L59.03-12.40Q59.03-10.33 58.76-8.18Q58.49-6.02 56.51-4.49L56.51-4.49Q47.26-3.68 48.96-10.78L48.96-10.78Q49.41-17.16 49.19-23.76Q48.96-30.37 52.47-35.67L52.47-35.67L55.43-37.73Q61.63-39.35 67.92-39.08Q74.21-38.81 80.77-38.81L80.77-38.81Q86.07-38.00 86.88-34.05L86.88-34.05Q87.96-27.85 87.33-6.02L87.33-6.02Q85.89-3.95 83.60-2.92Q81.31-1.89 78.79-2.34ZM54.71-43.84L51.93-43.13Q48.61-42.59 47.98-43.84L47.98-43.84Q46.63-45.46 47.80-48.16L47.80-48.16Q54.71-58.58 55.84-59.84Q56.96-61.09 57.41-62.62L57.41-62.62Q55.61-62.62 53.82-62.76Q52.02-62.89 50.67-63.70L50.67-63.70Q47.71-66.13 49.77-67.65L49.77-67.65L50.67-68.82Q52.92-69.90 55.66-69.54Q58.40-69.18 60.46-69.90L60.46-69.90L62.89-75.65Q63.61-76.46 65.23-76.73Q66.84-77.00 68.28-77.00L68.28-77.00Q69.99-76.10 70.21-74.62Q70.44-73.13 70.44-71.79L70.44-71.79L69.99-69.45Q73.22-69.18 76.50-69.54Q79.78-69.90 82.30-68.10L82.30-68.10Q82.93-66.66 82.57-64.78L82.57-64.78Q79.78-62.26 75.60-62.58Q71.43-62.89 67.29-62.26L67.29-62.26Q65.77-60.11 64.15-58.22L64.15-58.22Q67.83-58.67 73.13-58.76L73.13-58.76Q80.14-58.94 84.27-58.04L84.27-58.04Q86.07-57.32 86.56-56.02Q87.06-54.71 86.70-53.37L86.70-53.37Q83.91-51.21 81.85-51.30Q79.78-51.39 77.80-51.03L77.80-51.03Q78.25-49.14 77.54-47.53L77.54-47.53Q79.60-47.71 81.35-47.80Q83.11-47.89 86.70-46L86.70-46Q87.96-44.56 87.15-43.57L87.15-43.57Q86.16-42.59 85.08-42.18Q84.00-41.78 82.57-41.51L82.57-41.51Q80.41-40.70 72.77-40.47Q65.14-40.25 61.81-41.42L61.81-41.42L58.67-42.50Q56.78-44.11 57.86-45.64L57.86-45.64L58.67-46.72Q61.81-47.89 63.61-47.71Q65.41-47.53 68.91-47.53L68.91-47.53Q68.46-49.23 69.18-51.03L69.18-51.03Q66.04-51.03 64.78-51.03Q63.52-51.03 60.82-52.11L60.82-52.11Q60.46-52.56 60.20-53.01L60.20-53.01Q59.03-51.48 57.77-49.68L57.77-49.68L54.71-43.84Z" transform="translate(-4.1328125, 76.99609375)"></path></g></g></g></g> <g data-gra="path-slogan" fill-rule="evenodd" class="tp-slogan" fill="#444444" transform="translate(5,94.86609649658203)"><rect fill="none" x="0" height="0" y="8.800000190734863" width="20.278926849365234"></rect> <rect fill="none" height="0" y="8.800000190734863" width="20.278926849365234" x="123.67892837524414"></rect> <g transform="translate(23.278926849365234,0)"><g transform="scale(1)"><path d="M 79.9 5.2 L 79.9 5.2 L 80.8 12.5 L 79.7 13 L 74.3 5.9 L 75.4 5.5 L 79.6 11.3 L 79.7 11.3 L 78.7 4.1 L 79.9 3.6 L 84.4 9.3 L 84.4 9.3 L 83.2 2.2 L 84.4 1.7 L 85.6 10.5 L 84.5 11 L 79.9 5.2 Z M 16.8 8.4 L 13 6.7 L 11.4 10.2 L 10.3 9.8 L 13.8 1.9 L 19.2 4.3 L 18.8 5.2 L 14.5 3.3 L 13.4 5.7 L 17.2 7.5 L 16.8 8.4 Z M 38.5 9.4 L 39.7 9.5 L 39 17 L 43.3 17.4 L 43.2 18.4 L 37.7 17.9 L 38.5 9.4 Z M 49.8 10 L 51 10 L 51.4 17.5 L 55.7 17.3 L 55.8 18.3 L 50.2 18.6 L 49.8 10 Z M 26.2 15.8 A 4.1 4.1 0 0 0 31.4 12.6 A 4.1 4.1 0 0 0 28.5 7.1 A 4.1 4.1 0 0 0 23.3 10.4 A 4.1 4.1 0 0 0 26.2 15.8 Z M 69.8 11.7 Q 70.4 15.9 66.6 16.9 Q 62.8 17.5 61.6 13.4 Q 60.9 9 64.8 8.1 A 4.1 4.1 0 0 1 69.8 11.7 Z M 30.2 12.3 A 3.2 3.2 0 0 0 28.3 8.1 A 3.1 3.1 0 0 0 24.4 10.7 A 3 3 0 0 0 26.5 14.9 A 3.1 3.1 0 0 0 30.2 12.3 Z M 68.7 11.9 A 3.2 3.2 0 0 0 65 9.1 A 3.1 3.1 0 0 0 62.8 13.1 Q 63.6 16.4 66.4 15.9 A 3.1 3.1 0 0 0 68.7 11.9 Z M 5.6 3.3 L 5.1 4 L 0 0.7 L 0.5 0 L 5.6 3.3 Z M 97 0 L 97.4 0.7 L 92.4 4 L 91.9 3.3 L 97 0 Z"></path></g></g></g></g><defs>
              <filter id="3e9ede7f-7b0a-4be0-81aa-14c6b4c18296" x="0" y="0" width="110%" height="110%">
                <feOffset result="offOut" in="SourceGraphic" dx="4.6000000000000005" dy="4.6000000000000005"></feOffset>
                <feColorMatrix type="matrix" values="0 0 0 0 0.265625  0 0 0 0 0.265625  0 0 0 0 0.265625  0 0 0 1 0"></feColorMatrix>
                <feBlend in="SourceGraphic"></feBlend>
              </filter></defs><defs v-gra="od"></defs></svg>